<svg xmlns="http://www.w3.org/2000/svg" width="21" height="20" fill="none"><path fill="#CEF240" d="M7.332 4.167a2.5 2.5 0 1 1-5 0 2.5 2.5 0 0 1 5 0m11.668 0a2.5 2.5 0 1 1-5 0 2.5 2.5 0 0 1 5 0M7.332 15.833a2.5 2.5 0 1 1-5 0 2.5 2.5 0 0 1 5 0m11.668 0a2.5 2.5 0 1 1-5 0 2.5 2.5 0 0 1 5 0"/><path fill="#CEF240" d="M14.076 3.546 14 3.542H7.332l-.078.004a2.5 2.5 0 0 1 0 1.24l.078.006h6.667l.077-.005a2.5 2.5 0 0 1 0-1.24zm2.423 3.121q.322 0 .62-.078l.005.078v6.666l-.005.078a2.5 2.5 0 0 0-1.24 0l-.005-.078V6.667l.005-.078q.298.077.62.078m-2.423 8.546-.077-.005H7.332l-.078.005a2.5 2.5 0 0 1 0 1.24l.078.005h6.667l.077-.005a2.5 2.5 0 0 1 0-1.24M4.832 6.667q-.322 0-.62-.078l-.005.078v6.666q0 .04.005.078a2.5 2.5 0 0 1 1.24 0l.005-.078V6.667l-.005-.078q-.298.077-.62.078" opacity=".5"/></svg>